# xmcd
# 
# Track frame offsets:
#     150
#     14985
#     28017
#     46836
#     57263
#     70137
#     89014
#     104325
#     120130
#     133502
#     145762
#     165010
#     184413
#     205107
#     221276
# 
# Disc length: 3139
# 
# Revision: 5
# Processed by: cddbd v1.5.2PL0 Copyright (c) Steve Scherf et al.
# Submitted via: fre:ac v1.0.31
# 
DISCID=cd0c410f
DTITLE=Tom Jones - The Very Best Of [CD1)
DYEAR=2000
DGENRE=Blues
TTITLE0=Daughter Of Darkness
TTITLE1=She's A Lady
TTITLE2=Love Is In The Air
TTITLE3=Till
TTITLE4=Pledging My Love
TTITLE5=My Way
TTITLE6=Puppet Man
TTITLE7=Something 'Bout You Baby I Like
TTITLE8=I (Who Have Nothing)
TTITLE9=You've Got A Friend
TTITLE10=You've Lost That Lovin' Feelin'
TTITLE11=Memories Don't Leave Like People Do
TTITLE12=The Young New Mexican Puppeteer
TTITLE13=Say You'll Stay Until Tomorrow
TTITLE14=Delilah (Live)
EXTD=
EXTT0=
EXTT1=
EXTT2=
EXTT3=
EXTT4=
EXTT5=
EXTT6=
EXTT7=
EXTT8=
EXTT9=
EXTT10=
EXTT11=
EXTT12=
EXTT13=
EXTT14=
PLAYORDER=
